HIERARCHY
ROOT Hips
{
  OFFSET -371.194 74.5009 786.787
  CHANNELS 6 Xposition Yposition Zposition Zrotation Xrotation Yrotation
  JOINT Spine
  {
    OFFSET 0 8.00001 -2.43117e-05
    CHANNELS 6 Xposition Yposition Zposition Zrotation Xrotation Yrotation
    JOINT Spine1
    {
      OFFSET 5.77409e-05 7.9999 0.0408503
      CHANNELS 6 Xposition Yposition Zposition Zrotation Xrotation Yrotation
      JOINT Spine2
      {
        OFFSET -1.17491e-05 8 -6.66971e-05
        CHANNELS 6 Xposition Yposition Zposition Zrotation Xrotation Yrotation
        JOINT Spine3
        {
          OFFSET 0 8 0
          CHANNELS 6 Xposition Yposition Zposition Zrotation Xrotation Yrotation
          JOINT Neck
          {
            OFFSET 1.39589e-05 17 3.80516e-05
            CHANNELS 6 Xposition Yposition Zposition Zrotation Xrotation Yrotation
            JOINT Head
            {
              OFFSET -1.22014e-05 10.8 0
              CHANNELS 6 Xposition Yposition Zposition Zrotation Xrotation Yrotation
              End Site
              {
                OFFSET 0 20.25 0
              }
            }
          }
          JOINT LeftShoulder
          {
            OFFSET 5.00001 17 1.63626e-05
            CHANNELS 6 Xposition Yposition Zposition Zrotation Xrotation Yrotation
            JOINT LeftShoulder2
            {
              OFFSET 6.45 0 0
              CHANNELS 6 Xposition Yposition Zposition Zrotation Xrotation Yrotation
              JOINT LeftArm
              {
                OFFSET 6.45 0 3.12182e-05
                CHANNELS 6 Xposition Yposition Zposition Zrotation Xrotation Yrotation
                JOINT LeftForeArm
                {
                  OFFSET -4.4327e-05 -32.4 -2.06622
                  CHANNELS 6 Xposition Yposition Zposition Zrotation Xrotation Yrotation
                  JOINT LeftHand
                  {
                    OFFSET 6.09603e-05 -25.653 2.00005
                    CHANNELS 6 Xposition Yposition Zposition Zrotation Xrotation Yrotation
                    JOINT LeftHandThumb1
                    {
                      OFFSET -0.500005 -1.49992 2.64991
                      CHANNELS 6 Xposition Yposition Zposition Zrotation Xrotation Yrotation
                      JOINT LeftHandThumb2
                      {
                        OFFSET -2.06063e-05 -3.79999 3.69995
                        CHANNELS 6 Xposition Yposition Zposition Zrotation Xrotation Yrotation
                        JOINT LeftHandThumb3
                        {
                          OFFSET -7.39061e-05 -2.99994 2.70006
                          CHANNELS 6 Xposition Yposition Zposition Zrotation Xrotation Yrotation
                          End Site
                          {
                            OFFSET 0 -2.3 1.79997
                          }
                        }
                      }
                    }
                    JOINT LeftHandIndex
                    {
                      OFFSET -4.37953e-05 -1.90003 1.6
                      CHANNELS 6 Xposition Yposition Zposition Zrotation Xrotation Yrotation
                      JOINT LeftHandIndex1
                      {
                        OFFSET 0 -8.3 1.89995
                        CHANNELS 6 Xposition Yposition Zposition Zrotation Xrotation Yrotation
                        JOINT LeftHandIndex2
                        {
                          OFFSET 0.0259922 -4.49997 -1.20928e-05
                          CHANNELS 6 Xposition Yposition Zposition Zrotation Xrotation Yrotation
                          JOINT LeftHandIndex3
                          {
                            OFFSET 3.41012e-05 -3.39999 -1.39451e-05
                            CHANNELS 6 Xposition Yposition Zposition Zrotation Xrotation Yrotation
                            End Site
                            {
                              OFFSET -5.94818e-05 -2.60006 5.90891e-05
                            }
                          }
                        }
                      }
                    }
                    JOINT LeftHandMiddle
                    {
                      OFFSET -0.250034 -2.19994 0.40006
                      CHANNELS 6 Xposition Yposition Zposition Zrotation Xrotation Yrotation
                      JOINT LeftHandMiddle1
                      {
                        OFFSET -2.0939e-05 -8.30007 1.01781
                        CHANNELS 6 Xposition Yposition Zposition Zrotation Xrotation Yrotation
                        JOINT LeftHandMiddle2
                        {
                          OFFSET 1.43078e-05 -4.64999 -0.00907839
                          CHANNELS 6 Xposition Yposition Zposition Zrotation Xrotation Yrotation
                          JOINT LeftHandMiddle3
                          {
                            OFFSET -4.86387e-05 -3.30003 1.80512e-05
                            CHANNELS 6 Xposition Yposition Zposition Zrotation Xrotation Yrotation
                            End Site
                            {
                              OFFSET 2.22297e-05 -2.69995 0
                            }
                          }
                        }
                      }
                    }
                    JOINT LeftHandRing
                    {
                      OFFSET -0.500051 -2.12139 -0.800017
                      CHANNELS 6 Xposition Yposition Zposition Zrotation Xrotation Yrotation
                      JOINT LeftHandRing1
                      {
                        OFFSET 4.53015e-05 -7.74056 -0.200017
                        CHANNELS 6 Xposition Yposition Zposition Zrotation Xrotation Yrotation
                        JOINT LeftHandRing2
                        {
                          OFFSET -0.0335678 -3.7861 8.96593e-05
                          CHANNELS 6 Xposition Yposition Zposition Zrotation Xrotation Yrotation
                          JOINT LeftHandRing3
                          {
                            OFFSET 0.0041467 -3.39994 4.20949e-05
                            CHANNELS 6 Xposition Yposition Zposition Zrotation Xrotation Yrotation
                            End Site
                            {
                              OFFSET 0 -2.60002 -5.52203e-05
                            }
                          }
                        }
                      }
                    }
                    JOINT LeftHandPinky
                    {
                      OFFSET -0.749974 -1.74997 -1.84998
                      CHANNELS 6 Xposition Yposition Zposition Zrotation Xrotation Yrotation
                      JOINT LeftHandPinky1
                      {
                        OFFSET 3.09379e-05 -7.15006 -1.00005
                        CHANNELS 6 Xposition Yposition Zposition Zrotation Xrotation Yrotation
                        JOINT LeftHandPinky2
                        {
                          OFFSET 0.0402929 -2.99994 -6.47239e-05
                          CHANNELS 6 Xposition Yposition Zposition Zrotation Xrotation Yrotation
                          JOINT LeftHandPinky3
                          {
                            OFFSET -5.24801e-05 -2.35006 7.2244e-05
                            CHANNELS 6 Xposition Yposition Zposition Zrotation Xrotation Yrotation
                            End Site
                            {
                              OFFSET 2.17796e-05 -2.10007 -1.94121e-05
                            }
                          }
                        }
                      }
                    }
                  }
                }
              }
            }
          }
          JOINT RightShoulder
          {
            OFFSET -4.99999 17 0
            CHANNELS 6 Xposition Yposition Zposition Zrotation Xrotation Yrotation
            JOINT RightShoulder2
            {
              OFFSET -6.45 0 0
              CHANNELS 6 Xposition Yposition Zposition Zrotation Xrotation Yrotation
              JOINT RightArm
              {
                OFFSET -6.44999 0 0
                CHANNELS 6 Xposition Yposition Zposition Zrotation Xrotation Yrotation
                JOINT RightForeArm
                {
                  OFFSET 1.25277e-05 -32.4 -1.99999
                  CHANNELS 6 Xposition Yposition Zposition Zrotation Xrotation Yrotation
                  JOINT RightHand
                  {
                    OFFSET 0.0515817 -25.6499 2.00005
                    CHANNELS 6 Xposition Yposition Zposition Zrotation Xrotation Yrotation
                    JOINT RightHandThumb1
                    {
                      OFFSET 0.499992 -1.50003 2.65005
                      CHANNELS 6 Xposition Yposition Zposition Zrotation Xrotation Yrotation
                      JOINT RightHandThumb2
                      {
                        OFFSET 0.0378402 -3.79998 3.70004
                        CHANNELS 6 Xposition Yposition Zposition Zrotation Xrotation Yrotation
                        JOINT RightHandThumb3
                        {
                          OFFSET 0.0253902 -3.00002 2.70001
                          CHANNELS 6 Xposition Yposition Zposition Zrotation Xrotation Yrotation
                          End Site
                          {
                            OFFSET -9.05795e-05 -2.3 1.79999
                          }
                        }
                      }
                    }
                    JOINT RightHandIndex
                    {
                      OFFSET -0.00128117 -1.936 1.60171
                      CHANNELS 6 Xposition Yposition Zposition Zrotation Xrotation Yrotation
                      JOINT RightHandIndex1
                      {
                        OFFSET 2.95532e-05 -8.3 1.90002
                        CHANNELS 6 Xposition Yposition Zposition Zrotation Xrotation Yrotation
                        JOINT RightHandIndex2
                        {
                          OFFSET -1.84005e-05 -4.50002 0.0317858
                          CHANNELS 6 Xposition Yposition Zposition Zrotation Xrotation Yrotation
                          JOINT RightHandIndex3
                          {
                            OFFSET -3.12554e-05 -3.40002 -5.02277e-05
                            CHANNELS 6 Xposition Yposition Zposition Zrotation Xrotation Yrotation
                            End Site
                            {
                              OFFSET -1.1257e-05 -2.59999 7.49363e-05
                            }
                          }
                        }
                      }
                    }
                    JOINT RightHandMiddle
                    {
                      OFFSET 0.250065 -2.20001 0.400016
                      CHANNELS 6 Xposition Yposition Zposition Zrotation Xrotation Yrotation
                      JOINT RightHandMiddle1
                      {
                        OFFSET -1.62351e-05 -8.30003 1.00356
                        CHANNELS 6 Xposition Yposition Zposition Zrotation Xrotation Yrotation
                        JOINT RightHandMiddle2
                        {
                          OFFSET 5.0027e-05 -4.64992 -6.49988e-05
                          CHANNELS 6 Xposition Yposition Zposition Zrotation Xrotation Yrotation
                          JOINT RightHandMiddle3
                          {
                            OFFSET -7.25355e-05 -3.24315 6.49156e-05
                            CHANNELS 6 Xposition Yposition Zposition Zrotation Xrotation Yrotation
                            End Site
                            {
                              OFFSET -3.54144e-05 -2.69996 -7.36921e-05
                            }
                          }
                        }
                      }
                    }
                    JOINT RightHandRing
                    {
                      OFFSET 0.499922 -2.14996 -0.800006
                      CHANNELS 6 Xposition Yposition Zposition Zrotation Xrotation Yrotation
                      JOINT RightHandRing1
                      {
                        OFFSET 0 -7.74996 -0.19992
                        CHANNELS 6 Xposition Yposition Zposition Zrotation Xrotation Yrotation
                        JOINT RightHandRing2
                        {
                          OFFSET 3.43492e-05 -3.82781 1.26768e-05
                          CHANNELS 6 Xposition Yposition Zposition Zrotation Xrotation Yrotation
                          JOINT RightHandRing3
                          {
                            OFFSET -4.68521e-05 -3.40005 -6.09063e-05
                            CHANNELS 6 Xposition Yposition Zposition Zrotation Xrotation Yrotation
                            End Site
                            {
                              OFFSET 6.33427e-05 -2.60003 0.000107297
                            }
                          }
                        }
                      }
                    }
                    JOINT RightHandPinky
                    {
                      OFFSET 0.749984 -1.74995 -1.8378
                      CHANNELS 6 Xposition Yposition Zposition Zrotation Xrotation Yrotation
                      JOINT RightHandPinky1
                      {
                        OFFSET 6.12114e-05 -7.15008 -0.999969
                        CHANNELS 6 Xposition Yposition Zposition Zrotation Xrotation Yrotation
                        JOINT RightHandPinky2
                        {
                          OFFSET 3.82582e-05 -3.00001 8.47407e-05
                          CHANNELS 6 Xposition Yposition Zposition Zrotation Xrotation Yrotation
                          JOINT RightHandPinky3
                          {
                            OFFSET -1.69911e-05 -2.34997 -7.15776e-05
                            CHANNELS 6 Xposition Yposition Zposition Zrotation Xrotation Yrotation
                            End Site
                            {
                              OFFSET 3.40319e-05 -2.10449 0.0142955
                            }
                          }
                        }
                      }
                    }
                  }
                }
              }
            }
          }
        }
      }
    }
  }
  JOINT LeftUpLeg
  {
    OFFSET 8.00002 0 -2.12235e-05
    CHANNELS 6 Xposition Yposition Zposition Zrotation Xrotation Yrotation
    JOINT LeftLeg
    {
      OFFSET -5.58453e-05 -45.0001 -0.999992
      CHANNELS 6 Xposition Yposition Zposition Zrotation Xrotation Yrotation
      JOINT LeftFoot
      {
        OFFSET -6.71702e-05 -41 -2.00002
        CHANNELS 6 Xposition Yposition Zposition Zrotation Xrotation Yrotation
        JOINT LeftToeBase
        {
          OFFSET 0 -7.5 12.4999
          CHANNELS 6 Xposition Yposition Zposition Zrotation Xrotation Yrotation
          JOINT LeftFootToe
          {
            OFFSET 0 0 4
            CHANNELS 6 Xposition Yposition Zposition Zrotation Xrotation Yrotation
            End Site
            {
              OFFSET 0 0 0
            }
          }
        }
      }
    }
  }
  JOINT RightUpLeg
  {
    OFFSET -8.00002 0 2.12235e-05
    CHANNELS 6 Xposition Yposition Zposition Zrotation Xrotation Yrotation
    JOINT RightLeg
    {
      OFFSET 0 -45 -1.00005
      CHANNELS 6 Xposition Yposition Zposition Zrotation Xrotation Yrotation
      JOINT RightFoot
      {
        OFFSET -5.93622e-05 -41 -1.99992
        CHANNELS 6 Xposition Yposition Zposition Zrotation Xrotation Yrotation
        JOINT RightToeBase
        {
          OFFSET 2.82248e-05 -7.5 12.5
          CHANNELS 6 Xposition Yposition Zposition Zrotation Xrotation Yrotation
          JOINT RightFootToe
          {
            OFFSET 0 0 4
            CHANNELS 6 Xposition Yposition Zposition Zrotation Xrotation Yrotation
            End Site
            {
              OFFSET 0 0 0
            }
          }
        }
      }
    }
  }
}
MOTION
Frames:	3
Frame Time:	0.0111111
-378.104 76.0327 782.623 1.86799 1.54661 -177.914 -5.68434e-14 8 0 7.58665 11.085 -8.74576 0 8 1.13687e-13 -0.841924 7.55989 2.09312 -5.68434e-14 8 0 -0.385904 3.78825 1.03161 1.13687e-13 8 0 -0.384998 3.77985 1.02947 0 17 0 -2.35027 5.95702 2.13264 -5.68434e-14 10.8 0 -5.9292 13.7557 5.44111 5 17 1.13687e-13 -3.50735 -1.15 4.36934 6.45 -2.84217e-14 1.13687e-13 -1.74736 -0.378629 -1.08571 6.45 0 0 47.2057 -58.33 6.12947 -5.68434e-14 -32.4 -2 -5.03826 -18.6944 5.94316 0 -25.65 2 15.4767 0.711626 -39.7974 -0.5 -1.5 2.65 -0.557396 -24.3886 14.5037 0 -3.8 3.7 0.0056672 2.99878 -0.0402971 0 -3 2.7 0.0172762 35.3562 -0.0133578 -2.84217e-14 -1.9 1.6 -8.79558e-07 8.18431e-06 1.74746e-05 0 -8.3 1.9 -31.5755 -31.6296 -8.33737 -1.7053e-13 -4.5 5.68434e-14 -0.152814 -1.03983e-05 -3.98853e-05 5.68434e-14 -3.4 5.68434e-14 2.30932e-05 0.0446577 7.73997e-06 -0.25 -2.2 0.4 -8.79558e-07 8.18431e-06 1.74746e-05 2.84217e-14 -8.3 1 -20.7986 -27.3986 -4.47499 5.68434e-14 -4.65 -5.68434e-14 -2.14689 0.129556 0.0267613 0 -3.3 0 -7.73385e-06 0.135711 0.0197023 -0.5 -2.15 -0.8 -8.79558e-07 8.18431e-06 1.74746e-05 -5.68434e-14 -7.75 -0.2 -12.6974 -22.5362 -1.56792 5.68434e-14 -3.8 5.68434e-14 -2.12924 -0.000104446 -0.00815697 -2.84217e-14 -3.4 0 -5.71295e-05 -1.06805e-05 0.0156063 -0.75 -1.75 -1.85 -8.79558e-07 8.18431e-06 1.74746e-05 -2.84217e-14 -7.15 -1 -2.9983 -13.974 0.0852523 5.68434e-14 -3 0 3.56185e-05 0.0782032 -0.0443899 -2.84217e-14 -2.35 0 7.14577e-05 0.121154 -0.0425294 -5 17 -1.13687e-13 8.64832 -5.04979 -0.41976 -6.45 -2.84217e-14 1.13687e-13 -2.26638 1.25831 -1.79549 -6.45 -5.68434e-14 0 -63.9815 -51.2731 -20.35 -2.84217e-14 -32.4 -2 88.4725 -74.7712 80.575 -5.68434e-14 -25.65 2 -24.8547 -1.22506 4.57062 0.5 -1.5 2.65 -160.387 81.1549 61.6806 0 -3.8 3.7 0.180164 12.0364 0.0205006 0 -3 2.7 0.178781 -0.00113983 0.282655 5.68434e-14 -1.9 1.6 -6.06224e-05 2.25684e-05 -3.00699e-05 0 -8.3 1.9 9.70903 -11.9789 0.916725 0 -4.5 0 68.5127 0.0182895 0.00795957 0 -3.4 0 48.1487 0.016466 -0.00998101 0.25 -2.2 0.4 -6.06224e-05 2.25684e-05 -3.00699e-05 -2.84217e-14 -8.3 1 1.53373 10.4739 -0.257954 -2.84217e-14 -4.65 0 67.4177 0.00219941 -0.0227633 0 -3.3 0 47.6106 0.0202494 -0.0371849 0.5 -2.15 -0.8 -6.06224e-05 2.25684e-05 -3.00699e-05 2.84217e-14 -7.75 -0.2 32.5095 18.1616 -6.70927 -5.68434e-14 -3.8 5.68434e-14 0.0230461 -0.0241013 -0.0099609 0 -3.4 -5.68434e-14 -2.4231e-05 0.0575069 -0.00969385 0.75 -1.75 -1.85 -6.06224e-05 2.25684e-05 -3.00699e-05 0 -7.15 -1 51.0828 17.7343 -12.1416 0 -3 0 0.000109723 -0.0125659 0.00129808 0 -2.35 0 5.60477e-05 -0.00908387 -0.0228961 8 1.42109e-14 0 15.3829 -53.6338 7.8885 5.68434e-14 -45 -1 3.32716 49.501 -16.3838 5.68434e-14 -41 -2 -10.3576 1.80879 12.8119 0 -7.5 12.5 4.39531e-06 8.74789e-06 -9.94659e-06 -1.13687e-13 0 4 0.973723 -5.27615 19.5638 -8 0 0 8.3433 -58.3717 -3.44779 0 -45 -1 -15.6642 73.9975 28.8905 1.13687e-13 -41 -2 0.951137 16.4319 -18.7935 0 -7.5 12.5 7.91781e-07 -30.9997 -4.00012e-05 -5.68434e-14 0 4 -11.764 28.0947 48.8878 
-378.079 76.0526 782.563 1.9035 1.50318 -177.944 5.68434e-14 8 0 7.5798 11.1907 -8.74919 0 8 -1.13687e-13 -0.873451 7.57469 2.0725 0 8 1.13687e-13 -0.401923 3.79578 1.02075 0 8 0 -0.40091 3.78682 1.01831 5.68434e-14 17 0 -2.33325 5.82049 2.12383 0 10.8 0 -5.87517 13.4365 5.40428 5 17 -1.13687e-13 -3.46636 -1.23642 4.43674 6.45 0 1.13687e-13 -1.76095 -0.398992 -1.09906 6.45 5.68434e-14 0 47.1215 -58.5307 6.16809 2.84217e-14 -32.4 -2 -4.85151 -18.4443 5.95874 0 -25.65 2 15.0895 0.740881 -39.9833 -0.5 -1.5 2.65 -0.424122 -24.4255 14.6429 2.84217e-14 -3.8 3.7 0.00563347 2.98613 -0.040073 -5.68434e-14 -3 2.7 0.0152842 35.4261 -0.00982027 -2.84217e-14 -1.9 1.6 -8.79558e-07 8.18431e-06 1.74746e-05 -2.84217e-14 -8.3 1.9 -31.2363 -31.6026 -8.2354 5.68434e-14 -4.5 5.68434e-14 -0.152814 -1.03983e-05 -3.98853e-05 -1.13687e-13 -3.4 0 2.30931e-05 0.0449734 7.73997e-06 -0.25 -2.2 0.4 -8.79558e-07 8.18431e-06 1.74746e-05 0 -8.3 1 -20.581 -27.3284 -4.41473 0 -4.65 0 -2.14722 0.129809 0.0269799 0 -3.3 0 -7.84683e-06 0.135912 0.0198703 -0.5 -2.15 -0.8 -8.79558e-07 8.18431e-06 1.74746e-05 0 -7.75 -0.2 -12.5872 -22.4858 -1.54782 5.68434e-14 -3.8 0 -2.12944 -0.000104446 -0.00824668 5.68434e-14 -3.4 0 -5.71295e-05 -1.06805e-05 0.0158961 -0.75 -1.75 -1.85 -8.79558e-07 8.18431e-06 1.74746e-05 0 -7.15 -1 -3.00828 -13.9968 0.0855902 0 -3 0 3.74488e-05 0.0790747 -0.0452269 0 -2.35 1.13687e-13 7.40233e-05 0.122307 -0.0433304 -5 17 0 8.56785 -5.0275 -0.607559 -6.45 2.84217e-14 0 -2.26759 1.24416 -1.75709 -6.45 2.84217e-14 1.13687e-13 -64.1283 -51.7907 -20.517 2.84217e-14 -32.4 -2 88.0075 -74.871 79.9601 0 -25.65 2 -24.9232 -1.10978 4.50584 0.5 -1.5 2.65 -159.89 81.2961 61.2076 0 -3.8 3.7 0.18015 12.1456 0.0204267 -1.13687e-13 -3 2.7 0.179524 -0.00106063 0.284085 5.68434e-14 -1.9 1.6 -6.06224e-05 2.25684e-05 -3.00699e-05 0 -8.3 1.9 9.79906 -11.9491 0.923463 0 -4.5 1.13687e-13 68.4329 0.0175364 0.00822171 -5.68434e-14 -3.4 0 48.067 0.015496 -0.00938147 0.25 -2.2 0.4 -6.06224e-05 2.25684e-05 -3.00699e-05 -5.68434e-14 -8.3 1 1.54282 10.5029 -0.258773 0 -4.65 0 67.5274 0.00221831 -0.0223086 1.13687e-13 -3.3 0 47.7208 0.0196273 -0.0352379 0.5 -2.15 -0.8 -6.06224e-05 2.25684e-05 -3.00699e-05 0 -7.75 -0.2 32.5903 18.1998 -6.74063 -5.68434e-14 -3.8 -5.68434e-14 0.0230478 -0.0216605 -0.0089246 0 -3.4 0 -2.54492e-05 0.0554728 -0.00874397 0.75 -1.75 -1.85 -6.06224e-05 2.25684e-05 -3.00699e-05 0 -7.15 -1 51.3837 17.6609 -12.1981 -1.13687e-13 -3 0 0.000195551 -0.01041 0.00112765 0 -2.35 0 5.49057e-05 -0.00806226 -0.0203353 8 -1.42109e-14 1.13687e-13 15.4655 -53.6759 7.86289 0 -45 -1 3.3136 49.5882 -16.3356 0 -41 -2 -10.3889 1.64807 12.7864 0 -7.5 12.5 4.39531e-06 8.74789e-06 -9.94659e-06 5.68434e-14 0 4 0.974216 -5.16869 19.5484 -8 1.42109e-14 0 8.4281 -58.3633 -3.43788 0 -45 -1 -15.6787 73.9915 28.916 0 -41 -2 0.929938 16.4239 -18.8343 5.68434e-14 -7.5 12.5 7.69852e-07 -31.0266 -4.00125e-05 0 0 4 -11.7669 28.1098 48.9063 
-378.058 76.0731 782.501 1.93796 1.46358 -177.983 5.68434e-14 8 -1.13687e-13 7.56408 11.293 -8.75271 5.68434e-14 8 0 -0.905811 7.59097 2.04991 5.68434e-14 8 0 -0.418385 3.80405 1.00889 5.68434e-14 8 0 -0.417719 3.79536 1.00679 -5.68434e-14 17 1.13687e-13 -2.31297 5.68261 2.11743 -5.68434e-14 10.8 -1.13687e-13 -5.8137 13.1145 5.37219 5 17 1.13687e-13 -3.41769 -1.32755 4.51886 6.45 0 1.13687e-13 -1.77303 -0.423593 -1.11537 6.45 2.84217e-14 1.13687e-13 46.9244 -58.6752 6.16415 -2.84217e-14 -32.4 -2 -4.61703 -18.2289 5.98063 0 -25.65 2 14.7062 0.609695 -40.1673 -0.5 -1.5 2.65 -0.292451 -24.4411 14.7743 2.84217e-14 -3.8 3.7 0.00554723 2.89951 -0.0398233 0 -3 2.7 0.0137372 35.4696 -0.00706398 -2.84217e-14 -1.9 1.6 -8.79558e-07 8.18431e-06 1.74746e-05 0 -8.3 1.9 -30.7931 -31.5804 -8.10471 0 -4.5 5.68434e-14 -0.152814 -1.03983e-05 -3.98853e-05 -5.68434e-14 -3.4 -5.68434e-14 2.30931e-05 0.0452881 7.73997e-06 -0.25 -2.2 0.4 -8.79558e-07 8.18431e-06 1.74746e-05 2.84217e-14 -8.3 1 -20.3045 -27.2502 -4.33981 0 -4.65 5.68434e-14 -2.14754 0.130052 0.0271848 0 -3.3 5.68434e-14 -7.96294e-06 0.136105 0.0200379 -0.5 -2.15 -0.8 -8.79558e-07 8.18431e-06 1.74746e-05 -2.84217e-14 -7.75 -0.2 -12.434 -22.419 -1.51983 0 -3.8 5.68434e-14 -2.12964 -0.000104446 -0.00833662 -2.84217e-14 -3.4 -5.68434e-14 -5.71294e-05 -1.06805e-05 0.0161842 -0.75 -1.75 -1.85 -8.79558e-07 8.18431e-06 1.74746e-05 -2.84217e-14 -7.15 -1 -3.01739 -14.0191 0.0846123 5.68434e-14 -3 0 3.93142e-05 0.079948 -0.0460697 2.84217e-14 -2.35 0 7.66265e-05 0.123456 -0.0441354 -5 17 0 8.48449 -4.99403 -0.802813 -6.45 0 0 -2.26872 1.22651 -1.71869 -6.45 -5.68434e-14 -1.13687e-13 -64.2932 -52.3441 -20.6935 0 -32.4 -2 87.4514 -74.9675 79.2484 -5.68434e-14 -25.65 2 -25.0055 -0.988736 4.45313 0.5 -1.5 2.65 -159.477 81.4503 60.8422 0 -3.8 3.7 0.180126 12.2793 0.0203578 0 -3 2.7 0.180277 -0.000981264 0.285482 2.84217e-14 -1.9 1.6 -6.06224e-05 2.25684e-05 -3.00699e-05 2.84217e-14 -8.3 1.9 9.85097 -11.8884 0.924087 0 -4.5 0 68.3701 0.0163352 0.00849309 0 -3.4 0 48.0028 0.0145796 -0.00875566 0.25 -2.2 0.4 -6.06224e-05 2.25684e-05 -3.00699e-05 -2.84217e-14 -8.3 1 1.55768 10.5527 -0.26094 8.52651e-14 -4.65 0 67.6407 0.00224191 -0.0218087 1.13687e-13 -3.3 0 47.8354 0.0189635 -0.0331465 0.5 -2.15 -0.8 -6.06224e-05 2.25684e-05 -3.00699e-05 0 -7.75 -0.2 32.611 18.2621 -6.76659 5.68434e-14 -3.8 -5.68434e-14 0.0230496 -0.019174 -0.00789122 5.68434e-14 -3.4 5.68434e-14 -2.66377e-05 0.0533928 -0.00778502 0.75 -1.75 -1.85 -6.06224e-05 2.25684e-05 -3.00699e-05 2.84217e-14 -7.15 -1 51.7208 17.5933 -12.2696 0 -3 0 -0.0389926 -0.00826232 0.000945751 0 -2.35 0 -0.0372526 -0.00668239 -0.0176792 8 0 0 15.5423 -53.715 7.81837 0 -45 -1 3.29699 49.6837 -16.2788 -5.68434e-14 -41 -2 -10.4244 1.46702 12.7882 1.13687e-13 -7.5 12.5 4.39531e-06 8.74789e-06 -9.94659e-06 -5.68434e-14 0 4 0.982486 -5.0541 19.5376 -8 0 1.13687e-13 8.51499 -58.3488 -3.42775 0 -45 -1 -15.6992 73.9887 28.9495 1.13687e-13 -41 -2 0.90245 16.4116 -18.8687 -5.68434e-14 -7.5 12.5 7.57415e-07 -31.0419 -4.0019e-05 0 0 4 -11.7602 28.0812 48.9069 
